# Blender 5.2.0 LTS
# www.blender.org
mtllib Hi.mtl
o Cube
v -0.076160 -0.169850 -0.053742
v 0.024340 -0.145507 -0.053742
v -0.076160 -0.169850 0.046258
v 0.024340 -0.145507 0.046258
v -0.041396 -0.313380 -0.053742
v 0.059104 -0.289038 -0.053742
v -0.041396 -0.313380 0.046258
v 0.059104 -0.289038 0.046258
vn -0.9719 -0.2354 -0.0000
vn -0.0000 -0.0000 1.0000
vn 0.2354 -0.9719 -0.0000
vn 0.9719 0.2354 -0.0000
vn -0.2354 0.9719 -0.0000
vn -0.0000 -0.0000 -1.0000
vt 0.625000 0.500000
vt 0.875000 0.500000
vt 0.875000 0.750000
vt 0.625000 0.750000
vt 0.375000 0.750000
vt 0.625000 1.000000
vt 0.375000 1.000000
vt 0.375000 0.000000
vt 0.625000 0.000000
vt 0.625000 0.250000
vt 0.375000 0.250000
vt 0.125000 0.500000
vt 0.375000 0.500000
vt 0.125000 0.750000
s 0
usemtl Material
f 1/1/1 5/2/1 7/3/1 3/4/1
f 4/5/2 3/4/2 7/6/2 8/7/2
f 8/8/3 7/9/3 5/10/3 6/11/3
f 6/12/4 2/13/4 4/5/4 8/14/4
f 2/13/5 1/1/5 3/4/5 4/5/5
f 6/11/6 5/10/6 1/1/6 2/13/6
o Cube.001
v 0.025050 -0.164327 0.046240
v 0.016520 -0.055946 0.046240
v -0.075127 -0.172211 0.046240
v -0.083657 -0.063829 0.046240
v 0.025050 -0.164327 -0.054193
v 0.016520 -0.055946 -0.054193
v -0.075127 -0.172211 -0.054193
v -0.083657 -0.063829 -0.054193
vn -0.0000 -0.0000 1.0000
vn -0.9969 -0.0785 -0.0000
vn -0.0000 -0.0000 -1.0000
vn 0.9969 0.0785 -0.0000
vn 0.0785 -0.9969 -0.0000
vn -0.0785 0.9969 -0.0000
vt 0.375000 0.000000
vt 0.625000 0.000000
vt 0.625000 0.250000
vt 0.375000 0.250000
vt 0.625000 0.500000
vt 0.375000 0.500000
vt 0.625000 0.750000
vt 0.375000 0.750000
vt 0.625000 1.000000
vt 0.375000 1.000000
vt 0.125000 0.500000
vt 0.125000 0.750000
vt 0.875000 0.500000
vt 0.875000 0.750000
s 0
usemtl Material
f 9/15/7 10/16/7 12/17/7 11/18/7
f 11/18/8 12/17/8 16/19/8 15/20/8
f 15/20/9 16/19/9 14/21/9 13/22/9
f 13/22/10 14/21/10 10/23/10 9/24/10
f 11/25/11 15/20/11 13/22/11 9/26/11
f 16/19/12 12/27/12 10/28/12 14/21/12
o Cube.002
v 0.014749 -0.067659 0.045783
v 0.017486 0.002747 0.045783
v -0.085286 -0.063770 0.045783
v -0.082549 0.006636 0.045783
v 0.014749 -0.067659 -0.053767
v 0.017486 0.002747 -0.053767
v -0.085286 -0.063770 -0.053767
v -0.082549 0.006636 -0.053767
vn -0.0000 -0.0000 1.0000
vn -0.9992 0.0388 -0.0000
vn -0.0000 -0.0000 -1.0000
vn 0.9992 -0.0388 -0.0000
vn -0.0388 -0.9992 -0.0000
vn 0.0388 0.9992 -0.0000
vt 0.375000 0.000000
vt 0.625000 0.000000
vt 0.625000 0.250000
vt 0.375000 0.250000
vt 0.625000 0.500000
vt 0.375000 0.500000
vt 0.625000 0.750000
vt 0.375000 0.750000
vt 0.625000 1.000000
vt 0.375000 1.000000
vt 0.125000 0.500000
vt 0.125000 0.750000
vt 0.875000 0.500000
vt 0.875000 0.750000
s 0
f 17/29/13 18/30/13 20/31/13 19/32/13
f 19/32/14 20/31/14 24/33/14 23/34/14
f 23/34/15 24/33/15 22/35/15 21/36/15
f 21/36/16 22/35/16 18/37/16 17/38/16
f 19/39/17 23/34/17 21/36/17 17/40/17
f 24/33/18 20/41/18 18/42/18 22/35/18
o Cube.003
v 0.022546 -0.132520 -0.032673
v 0.092176 -0.127040 -0.032673
v 0.022546 -0.132520 0.016312
v 0.092176 -0.127040 0.016312
v 0.021962 -0.125089 -0.032673
v 0.091591 -0.119609 -0.032673
v 0.021962 -0.125089 0.016312
v 0.091592 -0.119609 0.016312
vn 0.0785 -0.9969 -0.0000
vn -0.0000 -0.0000 1.0000
vn -0.0785 0.9969 -0.0000
vn -0.0000 -0.0000 -1.0000
vn -0.9969 -0.0785 -0.0000
vn 0.9969 0.0785 -0.0000
vt 0.375000 0.000000
vt 0.625000 0.000000
vt 0.625000 0.250000
vt 0.375000 0.250000
vt 0.625000 0.500000
vt 0.375000 0.500000
vt 0.625000 0.750000
vt 0.375000 0.750000
vt 0.625000 1.000000
vt 0.375000 1.000000
vt 0.125000 0.500000
vt 0.125000 0.750000
vt 0.875000 0.500000
vt 0.875000 0.750000
s 0
f 25/43/19 26/44/19 28/45/19 27/46/19
f 27/46/20 28/45/20 32/47/20 31/48/20
f 31/48/21 32/47/21 30/49/21 29/50/21
f 29/50/22 30/49/22 26/51/22 25/52/22
f 27/53/23 31/48/23 29/50/23 25/54/23
f 32/47/24 28/55/24 26/56/24 30/49/24
o Cube.004
v 0.090421 -0.128984 -0.032566
v 0.142877 -0.082868 -0.032566
v 0.090421 -0.128984 0.016419
v 0.142877 -0.082868 0.016419
v 0.085500 -0.123386 -0.032566
v 0.137956 -0.077271 -0.032566
v 0.085500 -0.123386 0.016419
v 0.137956 -0.077271 0.016419
vn 0.6603 -0.7510 -0.0000
vn -0.0000 -0.0000 1.0000
vn -0.6603 0.7510 -0.0000
vn -0.0000 -0.0000 -1.0000
vn -0.7510 -0.6603 -0.0000
vn 0.7510 0.6603 -0.0000
vt 0.375000 0.000000
vt 0.625000 0.000000
vt 0.625000 0.250000
vt 0.375000 0.250000
vt 0.625000 0.500000
vt 0.375000 0.500000
vt 0.625000 0.750000
vt 0.375000 0.750000
vt 0.625000 1.000000
vt 0.375000 1.000000
vt 0.125000 0.500000
vt 0.125000 0.750000
vt 0.875000 0.500000
vt 0.875000 0.750000
s 0
f 33/57/25 34/58/25 36/59/25 35/60/25
f 35/60/26 36/59/26 40/61/26 39/62/26
f 39/62/27 40/61/27 38/63/27 37/64/27
f 37/64/28 38/63/28 34/65/28 33/66/28
f 35/67/29 39/62/29 37/64/29 33/68/29
f 40/61/30 36/69/30 34/70/30 38/63/30
o Cube.005
v 0.143498 -0.084239 -0.032386
v 0.140469 0.017016 -0.032386
v 0.143498 -0.084239 0.016598
v 0.140469 0.017016 0.016598
v 0.136044 -0.084462 -0.032386
v 0.133015 0.016793 -0.032386
v 0.136044 -0.084462 0.016598
v 0.133015 0.016793 0.016598
v 0.053066 0.010473 -0.015238
v 0.054371 -0.010760 -0.015238
v 0.040283 0.009687 -0.015238
v 0.041588 -0.011545 -0.015238
v 0.053066 0.010473 0.001745
v 0.054371 -0.010760 0.001745
v 0.040283 0.009687 0.001745
v 0.041588 -0.011545 0.001745
v 0.053715 -0.007599 -0.014720
v 0.060638 -0.026955 -0.014720
v 0.042062 -0.011766 -0.014720
v 0.048744 -0.032349 -0.014852
v 0.053715 -0.007599 0.001692
v 0.060638 -0.026955 0.001692
v 0.042062 -0.011766 0.001692
v 0.048984 -0.031123 0.001692
v 0.058751 -0.024609 -0.014720
v 0.071519 -0.040720 -0.014720
v 0.049052 -0.032296 -0.014720
v 0.061820 -0.048407 -0.014720
v 0.059163 -0.024609 0.001692
v 0.071519 -0.040188 0.001692
v 0.050093 -0.030942 0.001692
v 0.061820 -0.048407 0.001692
v 0.071506 -0.043580 0.002858
v 0.061430 -0.047740 -0.014042
v 0.082131 -0.059842 -0.013685
v 0.061134 -0.047338 0.001753
v 0.081936 -0.060117 0.002244
v 0.067077 -0.038385 -0.014516
v 0.090285 -0.049842 -0.013926
v 0.066882 -0.037920 0.001412
v 0.090750 -0.049378 0.002003
vn 0.9996 0.0299 -0.0000
vn -0.0000 -0.0000 1.0000
vn -0.9996 -0.0299 -0.0000
vn -0.0000 -0.0000 -1.0000
vn 0.0299 -0.9996 -0.0000
vn -0.0299 0.9996 -0.0000
vn -0.9981 -0.0613 -0.0000
vn 0.9981 0.0613 -0.0000
vn -0.0613 0.9981 -0.0000
vn 0.0613 -0.9981 -0.0000
vn 0.0037 0.0046 -1.0000
vn -0.9464 -0.3224 0.0189
vn 0.9416 0.3367 -0.0000
vn -0.3367 0.9416 -0.0000
vn 0.3759 -0.9261 0.0317
vn -0.8068 -0.5886 0.0499
vn 0.7834 0.6211 -0.0199
vn -0.5984 0.8011 -0.0065
vn 0.6340 -0.7732 0.0125
vn -0.5141 -0.8577 -0.0045
vn -0.0061 0.0333 0.9994
vn 0.4381 0.8984 -0.0299
vn 0.0012 -0.0379 -0.9993
vn -0.8551 0.5178 -0.0274
vn 0.7739 -0.6333 -0.0028
vt 0.375000 0.000000
vt 0.625000 0.000000
vt 0.625000 0.250000
vt 0.375000 0.250000
vt 0.625000 0.500000
vt 0.375000 0.500000
vt 0.625000 0.750000
vt 0.375000 0.750000
vt 0.625000 1.000000
vt 0.375000 1.000000
vt 0.125000 0.500000
vt 0.125000 0.750000
vt 0.875000 0.500000
vt 0.875000 0.750000
s 0
f 41/71/31 42/72/31 44/73/31 43/74/31
f 43/74/32 44/73/32 48/75/32 47/76/32
f 47/76/33 48/75/33 46/77/33 45/78/33
f 45/78/34 46/77/34 42/79/34 41/80/34
f 43/81/35 47/76/35 45/78/35 41/82/35
f 48/75/36 44/83/36 42/84/36 46/77/36
f 49/71/34 50/72/34 52/73/34 51/74/34
f 51/74/37 52/73/37 56/75/37 55/76/37
f 55/76/32 56/75/32 54/77/32 53/78/32
f 53/78/38 54/77/38 50/79/38 49/80/38
f 51/81/39 55/76/39 53/78/39 49/82/39
f 56/75/40 52/83/40 50/84/40 54/77/40
f 57/71/41 58/72/41 60/73/41 59/74/41
f 59/74/42 60/73/42 64/75/42 63/76/42
f 63/76/32 64/75/32 62/77/32 61/78/32
f 61/78/43 62/77/43 58/79/43 57/80/43
f 59/81/44 63/76/44 61/78/44 57/82/44
f 64/75/45 60/83/45 58/84/45 62/77/45
f 65/71/34 66/72/34 68/73/34 67/74/34
f 67/74/46 68/73/46 72/75/46 71/76/46
f 71/76/32 72/75/32 70/77/32 69/78/32
f 69/78/47 70/77/47 66/79/47 65/80/47
f 67/81/48 71/76/48 69/78/48 65/82/48
f 72/75/49 68/83/49 66/84/49 70/77/49
f 74/71/50 75/72/50 77/73/50 76/74/50
f 76/74/51 77/73/51 81/75/51 80/76/51
f 80/76/52 81/75/52 79/77/52 78/78/52
f 78/78/53 79/77/53 75/79/53 74/80/53
f 76/81/54 80/76/54 78/78/54 74/82/54
f 81/75/55 77/83/55 75/84/55 79/77/55
o Cube.006
v 0.151834 0.024040 -0.033171
v -0.038247 0.012357 -0.033171
v 0.151834 0.024040 0.015814
v -0.038247 0.012357 0.015814
v 0.152293 0.016571 -0.033171
v -0.037788 0.004889 -0.033171
v 0.152293 0.016571 0.015814
v -0.037788 0.004889 0.015814
vn -0.0613 0.9981 -0.0000
vn -0.0000 -0.0000 1.0000
vn 0.0613 -0.9981 -0.0000
vn -0.0000 -0.0000 -1.0000
vn 0.9981 0.0613 -0.0000
vn -0.9981 -0.0613 -0.0000
vt 0.375000 0.000000
vt 0.625000 0.000000
vt 0.625000 0.250000
vt 0.375000 0.250000
vt 0.625000 0.500000
vt 0.375000 0.500000
vt 0.625000 0.750000
vt 0.375000 0.750000
vt 0.625000 1.000000
vt 0.375000 1.000000
vt 0.125000 0.500000
vt 0.125000 0.750000
vt 0.875000 0.500000
vt 0.875000 0.750000
s 0
f 82/85/56 83/86/56 85/87/56 84/88/56
f 84/88/57 85/87/57 89/89/57 88/90/57
f 88/90/58 89/89/58 87/91/58 86/92/58
f 86/92/59 87/91/59 83/93/59 82/94/59
f 84/95/60 88/90/60 86/92/60 82/96/60
f 89/89/61 85/97/61 83/98/61 87/91/61
