# Blender 5.2.0 LTS
# www.blender.org
mtllib sony.mtl
o Cube
v 0.100000 0.100000 -0.100000
v 0.100000 -0.100000 -0.100000
v 0.100000 0.100000 0.100000
v 0.100000 -0.100000 0.100000
v -0.100000 0.100000 -0.100000
v -0.100000 -0.100000 -0.100000
v -0.100000 0.100000 0.100000
v -0.100000 -0.100000 0.100000
vn -0.0000 1.0000 -0.0000
vn -0.0000 -0.0000 1.0000
vn -1.0000 -0.0000 -0.0000
vn -0.0000 -1.0000 -0.0000
vn 1.0000 -0.0000 -0.0000
vn -0.0000 -0.0000 -1.0000
vt 0.625000 0.500000
vt 0.875000 0.500000
vt 0.875000 0.750000
vt 0.625000 0.750000
vt 0.375000 0.750000
vt 0.625000 1.000000
vt 0.375000 1.000000
vt 0.375000 0.000000
vt 0.625000 0.000000
vt 0.625000 0.250000
vt 0.375000 0.250000
vt 0.125000 0.500000
vt 0.375000 0.500000
vt 0.125000 0.750000
s 0
usemtl Material
f 1/1/1 5/2/1 7/3/1 3/4/1
f 4/5/2 3/4/2 7/6/2 8/7/2
f 8/8/3 7/9/3 5/10/3 6/11/3
f 6/12/4 2/13/4 4/5/4 8/14/4
f 2/13/5 1/1/5 3/4/5 4/5/5
f 6/11/6 5/10/6 1/1/6 2/13/6
o Cube.001
v -0.079093 0.114275 -0.069568
v -0.079093 -0.085725 -0.069568
v -0.079093 0.114275 0.130432
v -0.079093 -0.085725 0.130432
v -0.279093 0.114275 -0.069568
v -0.279093 -0.085725 -0.069568
v -0.279093 0.114275 0.130432
v -0.279093 -0.085725 0.130432
vn -0.0000 1.0000 -0.0000
vn -0.0000 -0.0000 1.0000
vn -1.0000 -0.0000 -0.0000
vn -0.0000 -1.0000 -0.0000
vn 1.0000 -0.0000 -0.0000
vn -0.0000 -0.0000 -1.0000
vt 0.625000 0.500000
vt 0.875000 0.500000
vt 0.875000 0.750000
vt 0.625000 0.750000
vt 0.375000 0.750000
vt 0.625000 1.000000
vt 0.375000 1.000000
vt 0.375000 0.000000
vt 0.625000 0.000000
vt 0.625000 0.250000
vt 0.375000 0.250000
vt 0.125000 0.500000
vt 0.375000 0.500000
vt 0.125000 0.750000
s 0
usemtl Material
f 9/15/7 13/16/7 15/17/7 11/18/7
f 12/19/8 11/18/8 15/20/8 16/21/8
f 16/22/9 15/23/9 13/24/9 14/25/9
f 14/26/10 10/27/10 12/19/10 16/28/10
f 10/27/11 9/15/11 11/18/11 12/19/11
f 14/25/12 13/24/12 9/15/12 10/27/12
o Cube.002
v -0.046098 0.098104 -0.056554
v -0.116702 -0.132373 -0.056554
v -0.046098 0.098104 0.143446
v -0.116702 -0.132373 0.143446
v -0.647242 0.282258 -0.056554
v -0.717846 0.051781 -0.056554
v -0.647242 0.282258 0.143446
v -0.717846 0.051781 0.143446
vn 0.2929 0.9561 -0.0000
vn -0.0000 -0.0000 1.0000
vn -0.9561 0.2929 -0.0000
vn -0.2929 -0.9561 -0.0000
vn 0.9561 -0.2929 -0.0000
vn -0.0000 -0.0000 -1.0000
vt 0.625000 0.500000
vt 0.875000 0.500000
vt 0.875000 0.750000
vt 0.625000 0.750000
vt 0.375000 0.750000
vt 0.625000 1.000000
vt 0.375000 1.000000
vt 0.375000 0.000000
vt 0.625000 0.000000
vt 0.625000 0.250000
vt 0.375000 0.250000
vt 0.125000 0.500000
vt 0.375000 0.500000
vt 0.125000 0.750000
s 0
usemtl Material
f 17/29/13 21/30/13 23/31/13 19/32/13
f 20/33/14 19/32/14 23/34/14 24/35/14
f 24/36/15 23/37/15 21/38/15 22/39/15
f 22/40/16 18/41/16 20/33/16 24/42/16
f 18/41/17 17/29/17 19/32/17 20/33/17
f 22/39/18 21/38/18 17/29/18 18/41/18
o Cube.003
v -0.653958 0.297865 -0.059764
v -0.663997 0.049281 -0.059764
v -0.653958 0.297865 0.146656
v -0.663997 0.049281 0.146656
v -1.302331 0.324050 -0.059764
v -1.312370 0.075466 -0.059764
v -1.302331 0.324050 0.146656
v -1.312370 0.075466 0.146656
vn 0.0404 0.9992 -0.0000
vn -0.0000 -0.0000 1.0000
vn -0.9992 0.0404 -0.0000
vn -0.0404 -0.9992 -0.0000
vn 0.9992 -0.0404 -0.0000
vn -0.0000 -0.0000 -1.0000
vt 0.625000 0.500000
vt 0.875000 0.500000
vt 0.875000 0.750000
vt 0.625000 0.750000
vt 0.375000 0.750000
vt 0.625000 1.000000
vt 0.375000 1.000000
vt 0.375000 0.000000
vt 0.625000 0.000000
vt 0.625000 0.250000
vt 0.375000 0.250000
vt 0.125000 0.500000
vt 0.375000 0.500000
vt 0.125000 0.750000
s 0
usemtl Material
f 25/43/19 29/44/19 31/45/19 27/46/19
f 28/47/20 27/46/20 31/48/20 32/49/20
f 32/50/21 31/51/21 29/52/21 30/53/21
f 30/54/22 26/55/22 28/47/22 32/56/22
f 26/55/23 25/43/23 27/46/23 28/47/23
f 30/53/24 29/52/24 25/43/24 26/55/24
o Cube.004
v -1.154493 0.432784 -0.054341
v -1.164532 0.184200 -0.054341
v -1.154493 0.432784 0.152080
v -1.164532 0.184200 0.152080
v -1.802866 0.458969 -0.054341
v -1.812905 0.210385 -0.054341
v -1.802866 0.458969 0.152080
v -1.812905 0.210385 0.152080
vn 0.0404 0.9992 -0.0000
vn -0.0000 -0.0000 1.0000
vn -0.9992 0.0404 -0.0000
vn -0.0404 -0.9992 -0.0000
vn 0.9992 -0.0404 -0.0000
vn -0.0000 -0.0000 -1.0000
vt 0.625000 0.500000
vt 0.875000 0.500000
vt 0.875000 0.750000
vt 0.625000 0.750000
vt 0.375000 0.750000
vt 0.625000 1.000000
vt 0.375000 1.000000
vt 0.375000 0.000000
vt 0.625000 0.000000
vt 0.625000 0.250000
vt 0.375000 0.250000
vt 0.125000 0.500000
vt 0.375000 0.500000
vt 0.125000 0.750000
s 0
usemtl Material
f 33/57/25 37/58/25 39/59/25 35/60/25
f 36/61/26 35/60/26 39/62/26 40/63/26
f 40/64/27 39/65/27 37/66/27 38/67/27
f 38/68/28 34/69/28 36/61/28 40/70/28
f 34/69/29 33/57/29 35/60/29 36/61/29
f 38/67/30 37/66/30 33/57/30 34/69/30
o Cube.005
v -0.777643 0.826298 -0.043961
v -0.787682 0.577714 -0.043961
v -0.777643 0.826298 0.162459
v -0.787682 0.577714 0.162459
v -1.426016 0.852484 -0.043961
v -1.436055 0.603899 -0.043961
v -1.426016 0.852484 0.162459
v -1.436055 0.603899 0.162459
vn 0.0404 0.9992 -0.0000
vn -0.0000 -0.0000 1.0000
vn -0.9992 0.0404 -0.0000
vn -0.0404 -0.9992 -0.0000
vn 0.9992 -0.0404 -0.0000
vn -0.0000 -0.0000 -1.0000
vt 0.625000 0.500000
vt 0.875000 0.500000
vt 0.875000 0.750000
vt 0.625000 0.750000
vt 0.375000 0.750000
vt 0.625000 1.000000
vt 0.375000 1.000000
vt 0.375000 0.000000
vt 0.625000 0.000000
vt 0.625000 0.250000
vt 0.375000 0.250000
vt 0.125000 0.500000
vt 0.375000 0.500000
vt 0.125000 0.750000
s 0
usemtl Material
f 41/71/31 45/72/31 47/73/31 43/74/31
f 44/75/32 43/74/32 47/76/32 48/77/32
f 48/78/33 47/79/33 45/80/33 46/81/33
f 46/82/34 42/83/34 44/75/34 48/84/34
f 42/83/35 41/71/35 43/74/35 44/75/35
f 46/81/36 45/80/36 41/71/36 42/83/36
o Cube.006
v -0.243360 0.736352 -0.048171
v -0.253399 0.487768 -0.048171
v -0.243360 0.736352 0.158250
v -0.253399 0.487768 0.158250
v -0.891733 0.762538 -0.048171
v -0.901772 0.513953 -0.048171
v -0.891733 0.762538 0.158250
v -0.901772 0.513953 0.158250
vn 0.0404 0.9992 -0.0000
vn -0.0000 -0.0000 1.0000
vn -0.9992 0.0404 -0.0000
vn -0.0404 -0.9992 -0.0000
vn 0.9992 -0.0404 -0.0000
vn -0.0000 -0.0000 -1.0000
vt 0.625000 0.500000
vt 0.875000 0.500000
vt 0.875000 0.750000
vt 0.625000 0.750000
vt 0.375000 0.750000
vt 0.625000 1.000000
vt 0.375000 1.000000
vt 0.375000 0.000000
vt 0.625000 0.000000
vt 0.625000 0.250000
vt 0.375000 0.250000
vt 0.125000 0.500000
vt 0.375000 0.500000
vt 0.125000 0.750000
s 0
usemtl Material
f 49/85/37 53/86/37 55/87/37 51/88/37
f 52/89/38 51/88/38 55/90/38 56/91/38
f 56/92/39 55/93/39 53/94/39 54/95/39
f 54/96/40 50/97/40 52/89/40 56/98/40
f 50/97/41 49/85/41 51/88/41 52/89/41
f 54/95/42 53/94/42 49/85/42 50/97/42
o Cube.007
v 0.167188 0.590190 -0.053656
v 0.157149 0.341605 -0.053656
v 0.167188 0.590190 0.152764
v 0.157149 0.341605 0.152764
v -0.481185 0.616375 -0.053656
v -0.491224 0.367791 -0.053656
v -0.481185 0.616375 0.152764
v -0.491224 0.367791 0.152764
vn 0.0404 0.9992 -0.0000
vn -0.0000 -0.0000 1.0000
vn -0.9992 0.0404 -0.0000
vn -0.0404 -0.9992 -0.0000
vn 0.9992 -0.0404 -0.0000
vn -0.0000 -0.0000 -1.0000
vt 0.625000 0.500000
vt 0.875000 0.500000
vt 0.875000 0.750000
vt 0.625000 0.750000
vt 0.375000 0.750000
vt 0.625000 1.000000
vt 0.375000 1.000000
vt 0.375000 0.000000
vt 0.625000 0.000000
vt 0.625000 0.250000
vt 0.375000 0.250000
vt 0.125000 0.500000
vt 0.375000 0.500000
vt 0.125000 0.750000
s 0
usemtl Material
f 57/99/43 61/100/43 63/101/43 59/102/43
f 60/103/44 59/102/44 63/104/44 64/105/44
f 64/106/45 63/107/45 61/108/45 62/109/45
f 62/110/46 58/111/46 60/103/46 64/112/46
f 58/111/47 57/99/47 59/102/47 60/103/47
f 62/109/48 61/108/48 57/99/48 58/111/48
